<svg xmlns="http://www.w3.org/2000/svg" viewBox="0 0 50 38.36">
    <path fill="#807061" d="M15.71,11.73C7.17,11.57.13,16.83,0,23.5a10.16,10.16,0,0,0,2.16,6.36c2.43,3.13-.22,8.5-.22,8.5L9.79,35a19.32,19.32,0,0,0,5.45.89c8.55.17,15.58-5.1,15.71-11.77S24.26,11.9,15.71,11.73m32.12,6.39h0A10.14,10.14,0,0,0,50,11.76C49.87,5.1,42.83-.17,34.28,0,27.12.14,21.17,4.06,19.51,9.25a19.94,19.94,0,0,1,8.89,4,13.66,13.66,0,0,1,5.42,10.88c.31,0,.62,0,.94,0a18.92,18.92,0,0,0,5.45-.88l7.84,3.38s-2.66-5.38-.22-8.5"/>
</svg>