<svg xmlns="http://www.w3.org/2000/svg" viewBox="0 0 50 50">
    <path d="M19.07,42.26H1.26A1.19,1.19,0,0,0,0,43.43v.67a1.26,1.26,0,0,0,1.26,1.26H19.07a6.16,6.16,0,0,0,11.94,0H48.74A1.26,1.26,0,0,0,50,44.11v-.67a1.19,1.19,0,0,0-1.26-1.18H31a6.16,6.16,0,0,0-11.94,0Zm8.9,0A3.31,3.31,0,1,1,25,40.49,3.31,3.31,0,0,1,28,42.26ZM0,24.36A6.26,6.26,0,0,0,0,25q0,.27,0,.54a6.16,6.16,0,0,0,12.11,1H48.74A1.26,1.26,0,0,0,50,25.34v-.67a1.19,1.19,0,0,0-1.26-1.18H12.14A6.16,6.16,0,0,0,0,24.36Zm9.06-.88a3.31,3.31,0,1,1-2.93-1.77A3.31,3.31,0,0,1,9.09,23.48ZM37.86,4.63H1.26A1.19,1.19,0,0,0,0,5.81v.67A1.26,1.26,0,0,0,1.26,7.74H37.86A6.16,6.16,0,0,0,50,6.72q0-.27,0-.54a6.26,6.26,0,0,0,0-.68,6.16,6.16,0,0,0-12.1-.88Zm8.9,0a3.31,3.31,0,1,1-2.93-1.77A3.31,3.31,0,0,1,46.76,4.63Z"/>
</svg>