<svg xmlns="http://www.w3.org/2000/svg" viewBox="0 0 9.25 9.25"><title>Asset 4</title><g id="Layer_2" data-name="Layer 2"><g id="Layer_1-2" data-name="Layer 1"><path d="M8.41.84H7.15V.21a.21.21,0,0,0-.42,0V.84H2.94V.21a.21.21,0,1,0-.42,0V.84H.84A.84.84,0,0,0,0,1.68V8.41a.84.84,0,0,0,.84.84h6.1l.08,0H7l.06,0,0,0,2-2,0,0a.18.18,0,0,0,0-.06h0a.14.14,0,0,0,0-.07h0V1.68A.84.84,0,0,0,8.41.84Zm-8,.84a.42.42,0,0,1,.42-.42H2.52v.42a.42.42,0,1,0,.42.46.13.13,0,0,0,0,0V1.26H6.73v.42a.42.42,0,1,0,.42.46.13.13,0,0,0,0,0V1.26H8.41a.42.42,0,0,1,.42.42V2.94H.42ZM6.73,7.57V8.83H.84a.42.42,0,0,1-.42-.42v-5H8.83V6.73H7.57A.84.84,0,0,0,6.73,7.57Zm.42,1v-1a.42.42,0,0,1,.42-.42h1ZM4,7.57H2.73a.21.21,0,0,1-.16-.35l1-1.15a.93.93,0,0,0,.22-.6.42.42,0,1,0-.84,0,.21.21,0,1,1-.42,0,.84.84,0,0,1,1.68,0,1.35,1.35,0,0,1-.32.88l-.69.81H4a.21.21,0,1,1,0,.42Zm1.48,0a.84.84,0,0,1-.85-.84.21.21,0,0,1,.42,0,.42.42,0,0,0,.85,0V6.6a.5.5,0,0,0-.15-.36.51.51,0,0,0-.36-.15.54.54,0,0,0-.4.15.21.21,0,0,1-.36-.18L4.84,4.8A.21.21,0,0,1,5,4.63H6.1A.21.21,0,1,1,6.1,5H5.22l-.11.66.23,0h0a.93.93,0,0,1,1,.92v.13A.84.84,0,0,1,5.47,7.57Z"/></g></g></svg>