<svg xmlns="http://www.w3.org/2000/svg" viewBox="0 0 11.22 8.46"><title>Asset 5</title><g id="Layer_2" data-name="Layer 2"><g id="Layer_1-2" data-name="Layer 1"><path d="M.38,8.46l-.14,0A.37.37,0,0,1,0,7.95C.78,6,3.41-.29,5.69,0A1,1,0,0,1,6.4.45c.5.77,0,2.39-.56,4.11C5.49,5.65,5,7.3,5.22,7.65c0,0,0,0,.1,0A6.56,6.56,0,0,0,6.28,6C6.9,4.75,7.35,4,7.9,4a.58.58,0,0,1,.45.22c.25.33.12.87,0,1.56-.09.35-.29,1.18-.16,1.32A6,6,0,0,0,10.77,7a.37.37,0,0,1,.16.73c-.38.08-2.3.46-3.12,0-.66-.34-.43-1.31-.22-2.16.05-.21.12-.49.15-.7A13,13,0,0,0,7,6.35c-.63,1.29-1,2.1-1.65,2.07a.83.83,0,0,1-.69-.34c-.45-.62-.09-1.83.52-3.75.4-1.27,1-3,.65-3.48a.21.21,0,0,0-.17-.1C4.53.63,2.45,3.83.72,8.22A.37.37,0,0,1,.38,8.46Z"/></g></g></svg>