<svg xmlns="http://www.w3.org/2000/svg" viewBox="0 0 50 50">
    <path fill="#807061" d="M25,50A25,25,0,1,1,50,25,25,25,0,0,1,25,50ZM25,2A23,23,0,1,0,48,25,23,23,0,0,0,25,2ZM23.53,30.41V28.94a4.75,4.75,0,0,1,1.08-3.23l2.4-3.3c1.25-1.72,1.68-2.55,1.68-3.77a3.22,3.22,0,0,0-3.48-3.34c-2,0-3.3,1.22-3.73,3.41a.32.32,0,0,1-.4.29l-2.26-.4a.32.32,0,0,1-.29-.4,6.42,6.42,0,0,1,6.74-5.7c3.87,0,6.49,2.55,6.49,6.1A7.47,7.47,0,0,1,30,23.27l-2.4,3.3a3.7,3.7,0,0,0-.93,2.69V30.4a.34.34,0,0,1-.36.36H23.89A.33.33,0,0,1,23.53,30.41Zm-.18,3.44a.34.34,0,0,1,.36-.36h2.73a.34.34,0,0,1,.36.36v3.08a.34.34,0,0,1-.36.36H23.71a.34.34,0,0,1-.36-.36Z"/>
</svg>