<svg xmlns="http://www.w3.org/2000/svg" viewBox="0 0 48 44.97">
    <path fill="#766019" d="M25.22,46.52a1.35,1.35,0,0,1-1.5.57c-.33-.09-.49-.36-.82-.37s-.58.31-.91.34-.75-.19-1.17-.21-.6.15-.94.09-.57-.37-.84-.42-.24,0-.67.07c-.84.08-.83-.08-1.39-.54-.21-.17-.1-.23-.36-.31s-.68.26-1.05.08-.25-.31-.41-.46A1.32,1.32,0,0,0,15,45h-.32c-.18-.1-.44,0-.59-.22s.07-.48,0-.72c-.17-.51-.47-.51-.24-1.19a4.51,4.51,0,0,1,1.46-1.82,27.91,27.91,0,0,0,3.6-3.25A7,7,0,0,0,20,36.14a3.65,3.65,0,0,0,.29-2.07c-.43-.93-2.38,1-2.29-.81-1,.49-2.24.76-2-.8-1,.57-2,.67-1.79-.77-1.3.48-1.87-.24-1.66-1.46-.2-.16-.81.4-1.16.24-.55-.25-.38-1-.18-1.43-.22-.22-1,.2-1.37,0-.73-.44,0-.9-.16-1.37s-.54-.07-1.09-.44-.44-1-.32-1.57c-.86,0-1.64,0-1.29-1.16-.54,0-1-.12-1.06-.75,0-.31.61-.8.56-1S5.27,22.41,5,22.16c-.47-.5-.24-.8.32-1.13-1.24-.44-1.64-.8-.73-1.9-.45-.14-1.05-.24-1.25-.73s.39-.69.39-1.12c0-.18-.79-.31-.83-.7s.43-.7.71-.92c-.26-.12-.82-.27-1-.54-.28-.45.14-.45.07-.85s-.88-.52-.27-1.2c-.59-.44-.65-.74.07-1.13-.23-.27-1-.41-1-.89s.78-.3,1.15-.25c-.27-.25-1.34-1.05-1.26-1.43.14-.63,1-.08,1.37.07C2.24,8.85,0,6.66,2.11,7.21c-.18-.22-1.12-1.71-1-2,.25-.63,1.24.6,1.47.81a18,18,0,0,1-1.3-2.22C1,3.11.69,2,1.68,2.74a10.49,10.49,0,0,1,1.85,2C3.69,5,4.62,6.44,4.9,6.42c-.07-.43-1-1.89-.24-1.73.38.08.95,1,1.21,1.29l1,1.08c.71.76,1.54,1.42,2.21,2.21.46.54,1.14,2.07,1.89,2.23.12-.68-.44-1.19-.64-1.79a4.76,4.76,0,0,1,1.76,1.53c.69.77,1.51,1.4,2.19,2.16,1.07,1.22,1.49,2.61,2.9,3.59s3.25,1.58,4.71,2.67c.74.55,3,3.35,3.72,3.1.54-.17,1.12-1.45,1.46-1.89a5.92,5.92,0,0,1,1.87-1.63,6.93,6.93,0,0,1,5.44-.42c.94.31,1.31.73,2.09,0a15,15,0,0,0,1.34-1.53,8,8,0,0,1,1-1.08c.32-.26.58-.21.87-.38a3.72,3.72,0,0,0,1.07-1.44,6.3,6.3,0,0,1,.57-1c.07-.09.15-.28.25-.34.35-.21.47.07.69,0s.34-.15.57-.61.36-.89.57-1.31c.09-.18.14-.51.36-.59s.34.19.56.19c.38,0,.29-.07.56-.53.51-.87,1.11-1.41,1.51-.16.25-.42.85-1.87,1.41-2,.79-.17.58,1.32.58,1.77.29.14.24-.29.55.12s-.1,1.36-.19,1.69a9.77,9.77,0,0,1-1.61,3,17.5,17.5,0,0,1-4.73,4.69,19.86,19.86,0,0,0-3,1.89,2.51,2.51,0,0,0-.52,2.37,4.93,4.93,0,0,1-.2,2.72c-.45.94-1.39,1.42-2,2.23-1,1.44-1,3.43-2,4.88s-2.86,2.66-3.81,4.36c-.65,1.17.44,1.22,1.39,1a19.39,19.39,0,0,0,2.71-1.23,6.92,6.92,0,0,1,2.55-.66c.85.06,2.19.4,1.8,1.56-.38-.52-.25-1.29-1.15-.87-.37.17-.81.94-1.25.12,1.56,0-.07-.71-.55-.18s.22.35.51.48c.51.21.83.41.72,1.06a.93.93,0,0,0-1-.83c.67.4.53.59.76,1.21.13.35.9,1.41,0,1.64.11-.38.26-.9-.15-1.19s-.42.15-.7,0-.42-.69-.82-.85-.16-.23-.62-.05a5.27,5.27,0,0,0-1.22.91c-.3.52-.13.43.28.86s1,1.48,1.6.34c.23.83-.75.93-1.3.91a1.29,1.29,0,0,1-1-.33c-.12-.09-.59-.66-.74-.64s-.15.33-.33.45-.3-.09-.45,0c-.77.43-.85.43-1.53-.3-.32,1-.81-.6-1.26-.4-.27.12,0,2.76,0,3.12s.13,1-.32,1.3a3.4,3.4,0,0,0-.48-.09,1.45,1.45,0,0,0-.16.32c-.22.2-.36.59-.6.82a2.28,2.28,0,0,0-.5.21,2.05,2.05,0,0,0-.15.58c-.64.95-1.12.35-1.7-.48C25.17,46.58,25.31,46.65,25.22,46.52Z" transform="translate(-1 -2.52)"/>
</svg>