<svg xmlns="http://www.w3.org/2000/svg" viewBox="0 0 46 44.54"><defs><style>.cls-1{fill:#444;}</style></defs><title>Asset 1</title><g id="Layer_2" data-name="Layer 2"><g id="Layer_1-2" data-name="Layer 1"><path class="cls-1" d="M42,8.34V38a5.12,5.12,0,0,1-5.12,5.12H6.58A5.12,5.12,0,0,1,1.46,38V7.68A5.12,5.12,0,0,1,6.58,2.56H38.39V1.1H6.58A6.59,6.59,0,0,0,0,7.68V38a6.59,6.59,0,0,0,6.58,6.58H36.86A6.59,6.59,0,0,0,43.44,38V8.34Z"/><path class="cls-1" d="M45.27,2.63h-1.9V.73A.73.73,0,0,0,42.64,0h0a.73.73,0,0,0-.73.73v1.9H40a.73.73,0,0,0-.73.73h0A.73.73,0,0,0,40,4.1h1.9V6a.73.73,0,0,0,.73.73h0A.73.73,0,0,0,43.37,6V4.1h1.9A.73.73,0,0,0,46,3.36h0A.73.73,0,0,0,45.27,2.63Z"/><path d="M35.12,12.45H8.93a1.41,1.41,0,0,0-1.41,1.41V34.39A1.41,1.41,0,0,0,8.93,35.8H35.12a1.41,1.41,0,0,0,1.41-1.41V13.86A1.41,1.41,0,0,0,35.12,12.45ZM8.93,34.66V28l2.72-2.72a2.16,2.16,0,0,1,3.06,0l2.6,2.6a2.3,2.3,0,0,1,.4.55l-6.43,6.2Zm26.18,0H13.22l4.56-4.4,1.46-1.42,4.87-4.7a1.57,1.57,0,0,1,2.19,0l8.81,8.5Zm0-3.88-8.81-8.5a1.57,1.57,0,0,0-2.19,0l-5.6,5.41-3.76-3.76a2.16,2.16,0,0,0-3.06,0L8.93,26.67V13.59H35.11ZM30.51,16.7A2.48,2.48,0,1,0,33,19.17,2.48,2.48,0,0,0,30.51,16.7Zm0,4.25a1.77,1.77,0,1,1,1.77-1.77A1.77,1.77,0,0,1,30.51,20.94Z"/></g></g></svg>