<svg xmlns="http://www.w3.org/2000/svg" viewBox="0 0 297 297">
    <path fill="#000000" d="M241,0H25A25,25,0,0,0,0,25V272a25,25,0,0,0,25,25H272a25,25,0,0,0,25-25h0V55.27ZM80.8,14H217.2V95H80.8ZM244,283H54V161H244Zm39-10.26A10.26,10.26,0,0,1,272.74,283H256V161.81A13.81,13.81,0,0,0,242.19,148H55.81A13.81,13.81,0,0,0,42,161.81V283H24.26A10.26,10.26,0,0,1,14,272.74h0V24.26A10.26,10.26,0,0,1,24.26,14H69V95.06A12.94,12.94,0,0,0,81.94,108H216.06A12.94,12.94,0,0,0,229,95.06h0V14h9l45,46ZM81,190h80v12H81Zm0,27H217v12H81Zm0,26H217v12H81Zm0-53h80v12H81Zm0,27H217v12H81Zm0,26H217v12H81Zm0-53h80v12H81Zm0,27H217v12H81Zm0,26H217v12H81ZM176,27h26V80H176Z"/>
</svg>