<svg xmlns="http://www.w3.org/2000/svg" viewBox="0 0 50 50">
    <path fill="#807061" d="M37.5,0H6.25A6.25,6.25,0,0,0,0,6.25v37.5A6.25,6.25,0,0,0,6.25,50H23.44V46.88H6.25a3.13,3.13,0,0,1-3.13-3.13V6.25A3.13,3.13,0,0,1,6.25,3.12H37.5a3.13,3.13,0,0,1,3.13,3.13V24.62l3.13-3.13V6.25A6.25,6.25,0,0,0,37.5,0ZM49.08,28.13l-2.21-2.21a3.12,3.12,0,0,0-4.42,0L29,39.33c-.61.61-2.48,3-2.48,3.77L25,50l6.9-1.56A38,38,0,0,0,35.67,46L49.08,32.54A3.12,3.12,0,0,0,49.08,28.13ZM34.57,44.85A15.56,15.56,0,0,1,33,45.91l-4-4a13.89,13.89,0,0,1,1.16-1.43l10.1-10.1,4.42,4.42ZM34.38,12.5h-25V9.37h25Zm0,6.25h-25V15.62h25Zm0,6.25h-25V21.87h25Zm-12.5,6.25H9.38V28.13h12.5Z" transform="translate(0 0)"/>
</svg>