<svg xmlns="http://www.w3.org/2000/svg" viewBox="3244 132 21.252 20">
    <path fill="#000000" d="M13.307,2.348H10.959a.37.37,0,0,1-.391-.391.37.37,0,0,1,.391-.391h2.348a.37.37,0,0,1,.391.391A.37.37,0,0,1,13.307,2.348ZM9,1.957a.37.37,0,0,0-.391-.391H6.262a.37.37,0,0,0-.391.391.37.37,0,0,0,.391.391H8.611A.37.37,0,0,0,9,1.957Zm8.611-.391H15.656a.421.421,0,0,0-.391.391.421.421,0,0,0,.391.391h1.957a1.153,1.153,0,0,1,1.174,1.174V5.088h-18V3.523A1.153,1.153,0,0,1,1.957,2.348H3.914a.421.421,0,0,0,.391-.391.421.421,0,0,0-.391-.391H1.957A1.938,1.938,0,0,0,0,3.523V15.264a1.938,1.938,0,0,0,1.957,1.957h9a.391.391,0,0,0,0-.783h-9A1.153,1.153,0,0,1,.783,15.264V5.871h18v4.305a.391.391,0,1,0,.783,0V3.523A1.938,1.938,0,0,0,17.613,1.566ZM9.393,8.689a.783.783,0,1,0-.783.783A.785.785,0,0,0,9.393,8.689Zm2.74,0a.783.783,0,1,0-.783.783A.785.785,0,0,0,12.133,8.689Zm2.74,0a.783.783,0,1,0-.783.783A.785.785,0,0,0,14.873,8.689Zm2.74,0a.783.783,0,1,0-.783.783A.785.785,0,0,0,17.613,8.689Zm-8.219,2.74a.783.783,0,1,0-.783.783A.785.785,0,0,0,9.393,11.429Zm-2.74,0a.783.783,0,1,0-.783.783A.785.785,0,0,0,6.654,11.429Zm-2.74,0a.783.783,0,1,0-.783.783A.785.785,0,0,0,3.914,11.429Zm8.219,0a.783.783,0,1,0-.783.783A.785.785,0,0,0,12.133,11.429Zm-2.74,2.74a.783.783,0,1,0-.783.783A.785.785,0,0,0,9.393,14.168Zm-2.74,0a.783.783,0,1,0-.783.783A.785.785,0,0,0,6.654,14.168Zm-2.74,0a.783.783,0,1,0-.783.783A.785.785,0,0,0,3.914,14.168ZM10.176,2.74V.391a.391.391,0,1,0-.783,0V2.74a.391.391,0,0,0,.783,0Zm-4.7,0V.391a.391.391,0,1,0-.783,0V2.74a.391.391,0,0,0,.783,0Zm9.393,0V.391a.391.391,0,1,0-.783,0V2.74a.391.391,0,1,0,.783,0Zm6.38,12.524A4.736,4.736,0,1,0,16.517,20,4.727,4.727,0,0,0,21.252,15.264Zm-.783,0a3.953,3.953,0,1,1-3.953-3.953A3.942,3.942,0,0,1,20.47,15.264Zm-1.6-.822a.407.407,0,0,0-.509-.235l-1.683.587-1.409-2.309a.4.4,0,0,0-.665.431l1.6,2.544V15.5a.359.359,0,0,0,.235.157h.117a.144.144,0,0,0,.117-.039l2-.7A.334.334,0,0,0,18.865,14.442Z" transform="translate(3244 132)"/></svg>