<svg xmlns="http://www.w3.org/2000/svg" viewBox="0 0 50 40.35">
    <path fill="#807061" d="M7.9,10.12H34.82a.67.67,0,0,0,.62-.47,7.75,7.75,0,0,1,7.43-5.49,2.94,2.94,0,0,1,.58,0,.26.26,0,0,0,.23-.39,8.27,8.27,0,0,0-7-3.81H8.29A8.32,8.32,0,0,0,0,8.29V32.06a8.32,8.32,0,0,0,8.29,8.29H36.73a4.47,4.47,0,0,0,.74,0,.15.15,0,0,0,.08-.27,7.79,7.79,0,0,1-2.33-4.24.42.42,0,0,0-.43-.35H7.9a2.73,2.73,0,0,1-2.72-2.72V12.84A2.76,2.76,0,0,1,7.9,10.12Zm7.16-7.47a2.55,2.55,0,0,1,2.57,2.61A2.64,2.64,0,0,1,15.1,7.82a2.59,2.59,0,1,1,0-5.17ZM5.14,5.72a2.58,2.58,0,1,1,2,2A2.57,2.57,0,0,1,5.14,5.72ZM50,33.93a6.08,6.08,0,0,1-5.68,5.72,6,6,0,0,1-6.38-5.76l-13.62-6a5.94,5.94,0,0,1-4.4,1.21,6,6,0,0,1,.78-12,6,6,0,0,1,4,1.56l13.23-5.8a6,6,0,0,1,6.38-5.8A6,6,0,0,1,44,19.14a6,6,0,0,1-4.47-2l-12.84,5.6v.39a7,7,0,0,1-.08.89l12.84,5.6A6,6,0,0,1,50,33.93Z"/>
</svg>