<svg xmlns="http://www.w3.org/2000/svg" viewBox="0 0 16.8 20">
    <path fill="#000000" d="M8.4,3.2a8.4,8.4,0,1,0,8.4,8.4A8.4,8.4,0,0,0,8.4,3.2Zm0,15.73a7.33,7.33,0,1,1,7.33-7.33A7.33,7.33,0,0,1,8.4,18.93ZM10.44,0H6.36a.57.57,0,0,0-.58.56s0,0,0,0v.48a.58.58,0,0,0,.58.58h.2v.51a.35.35,0,0,0,.36.34H7a9.55,9.55,0,0,1,2.75,0h0a.38.38,0,0,0,.49-.38V1.63h.2A.58.58,0,0,0,11,1.05V.58A.57.57,0,0,0,10.44,0Zm4.33,5a.4.4,0,0,0,.64-.09h0l.35-.5a.26.26,0,0,0,0-.37L15.7,4,13.11,2.18h0a.22.22,0,0,0-.31,0h0v.07l-.38.54s-.24.37.09.55h0A9.55,9.55,0,0,1,14.77,5Zm-.39,6A5.85,5.85,0,0,0,9.1,5.62H9c-.57-.1-.63.34-.63.47V11a.58.58,0,0,0,.56.6h4.9a.5.5,0,0,0,.55-.6Z"/>
</svg>